<?xml version="1.0" encoding="UTF-8"?><svg xmlns="http://www.w3.org/2000/svg" xmlns:xlink="http://www.w3.org/1999/xlink" viewBox="0 0 124.42 31.89"><defs><style>.e{fill:#041742;}.f{fill:url(#c);}.g{fill:url(#d);}</style><radialGradient id="c" cx="23.62" cy="8.51" fx="23.62" fy="8.51" r="17.52" gradientTransform="matrix(1, 0, 0, 1, 0, 0)" gradientUnits="userSpaceOnUse"><stop offset=".1" stop-color="#26db8d"/><stop offset=".26" stop-color="#22d299"/><stop offset=".56" stop-color="#19baba"/><stop offset=".89" stop-color="#0e9de5"/></radialGradient><radialGradient id="d" cx="23.62" cy="8.51" fx="23.62" fy="8.51" r="17.52" xlink:href="#c"/></defs><g id="a"/><g id="b"><g><path class="e" d="M15.95,27.53c-6.38,0-11.59-5.19-11.59-11.58S9.57,4.36,15.95,4.36c3.21,0,6.12,1.31,8.22,3.43l4.15-1.91C25.4,2.29,20.94,0,15.95,0,7.15,0,0,7.14,0,15.95s7.15,15.94,15.95,15.94c4.99,0,9.45-2.29,12.37-5.88l-4.15-1.91c-2.1,2.12-5.01,3.43-8.22,3.43Z"/><circle class="f" cx="15.95" cy="15.94" r="6.64"/><circle class="g" cx="28.74" cy="15.94" r="2.85"/><g><path class="e" d="M35.62,15.94c0-5.56,4.06-9.54,9.62-9.54s9.65,3.98,9.65,9.54-4.06,9.54-9.65,9.54-9.62-3.98-9.62-9.54Zm15.23,0c0-3.46-2.21-6.05-5.61-6.05s-5.59,2.6-5.59,6.05,2.18,6.06,5.59,6.06,5.61-2.63,5.61-6.06Z"/><path class="e" d="M57.98,25.17V6.72h9.7c3.51,0,5.31,2.24,5.31,4.7,0,2.32-1.44,3.87-3.18,4.23,1.96,.3,3.54,2.21,3.54,4.53,0,2.76-1.85,4.98-5.36,4.98h-10.01Zm11-13.05c0-1.16-.83-2.02-2.16-2.02h-4.92v4.01h4.92c1.33,0,2.16-.83,2.16-1.99Zm.36,7.52c0-1.16-.83-2.16-2.38-2.16h-5.06v4.29h5.06c1.49,0,2.38-.8,2.38-2.13Z"/><path class="e" d="M90.42,25.17l-1.13-3.12h-7.91l-1.16,3.12h-4.48l7.13-18.44h4.92l7.11,18.44h-4.48Zm-5.09-14.52l-2.88,7.94h5.75l-2.88-7.94Z"/><path class="e" d="M97.99,25.17V6.72h3.93v14.99h7.8v3.46h-11.72Z"/><path class="e" d="M115.11,25.17V10.18h-5.39v-3.46h14.71v3.46h-5.36v14.99h-3.95Z"/></g></g></g></svg>